REM DIRINDEX 1\2\4,1\2\5,1\3\6,1\3\7,1\3\8
REM DIRNAME cjc092,folder01,folder02,folder03,folder04,folder05,folder06,folder07
TITLE ""
FILE "LEVEL2-018-midashigo.mp3" MP3
  TRACK 01 AUDIO
    TITLE "0:"
    INDEX 01 00:00:00
  TRACK 02 AUDIO
    TITLE "6:cjc092_1615"
    INDEX 01 00:00:07
  TRACK 03 AUDIO
    TITLE "0:"
    INDEX 01 00:03:10
  TRACK 04 AUDIO
    TITLE "7:cjc092_1616"
    INDEX 01 00:03:66
  TRACK 05 AUDIO
    TITLE "8:cjc092_1617"
    INDEX 01 00:05:20
  TRACK 06 AUDIO
    TITLE "0:"
    INDEX 01 00:08:19
  TRACK 07 AUDIO
    TITLE "7:cjc092_1618"
    INDEX 01 00:08:54
  TRACK 08 AUDIO
    TITLE "8:cjc092_1619"
    INDEX 01 00:09:73
  TRACK 09 AUDIO
    TITLE "0:"
    INDEX 01 00:13:45
  TRACK 10 AUDIO
    TITLE "7:cjc092_1620"
    INDEX 01 00:14:04
  TRACK 11 AUDIO
    TITLE "8:cjc092_1621"
    INDEX 01 00:15:50
  TRACK 12 AUDIO
    TITLE "0:"
    INDEX 01 00:17:53
  TRACK 13 AUDIO
    TITLE "7:cjc092_1622"
    INDEX 01 00:18:15
  TRACK 14 AUDIO
    TITLE "8:cjc092_1623"
    INDEX 01 00:19:44
  TRACK 15 AUDIO
    TITLE "0:"
    INDEX 01 00:20:69
  TRACK 16 AUDIO
    TITLE "7:cjc092_1624"
    INDEX 01 00:21:29
  TRACK 17 AUDIO
    TITLE "8:cjc092_1625"
    INDEX 01 00:22:66
  TRACK 18 AUDIO
    TITLE "0:"
    INDEX 01 00:24:06
  TRACK 19 AUDIO
    TITLE "7:cjc092_1626"
    INDEX 01 00:24:37
  TRACK 20 AUDIO
    TITLE "8:cjc092_1627"
    INDEX 01 00:25:58
  TRACK 21 AUDIO
    TITLE "0:"
    INDEX 01 00:27:39
  TRACK 22 AUDIO
    TITLE "7:cjc092_1628"
    INDEX 01 00:28:02
  TRACK 23 AUDIO
    TITLE "8:cjc092_1629"
    INDEX 01 00:29:29
  TRACK 24 AUDIO
    TITLE "0:"
    INDEX 01 00:31:37
  TRACK 25 AUDIO
    TITLE "7:cjc092_1630"
    INDEX 01 00:31:67
  TRACK 26 AUDIO
    TITLE "8:cjc092_1631"
    INDEX 01 00:33:17
  TRACK 27 AUDIO
    TITLE "0:"
    INDEX 01 00:35:17
  TRACK 28 AUDIO
    TITLE "7:cjc092_1632"
    INDEX 01 00:35:51
  TRACK 29 AUDIO
    TITLE "8:cjc092_1633"
    INDEX 01 00:37:01
  TRACK 30 AUDIO
    TITLE "0:"
    INDEX 01 00:38:45
  TRACK 31 AUDIO
    TITLE "7:cjc092_1634"
    INDEX 01 00:39:03
  TRACK 32 AUDIO
    TITLE "8:cjc092_1635"
    INDEX 01 00:40:19
  TRACK 33 AUDIO
    TITLE "0:"
    INDEX 01 00:41:28
  TRACK 34 AUDIO
    TITLE "7:cjc092_1636"
    INDEX 01 00:41:63
  TRACK 35 AUDIO
    TITLE "8:cjc092_1637"
    INDEX 01 00:43:07
  TRACK 36 AUDIO
    TITLE "0:"
    INDEX 01 00:46:64
  TRACK 37 AUDIO
    TITLE "7:cjc092_1638"
    INDEX 01 00:47:25
  TRACK 38 AUDIO
    TITLE "8:cjc092_1639"
    INDEX 01 00:48:46
  TRACK 39 AUDIO
    TITLE "0:"
    INDEX 01 00:50:68
  TRACK 40 AUDIO
    TITLE "7:cjc092_1640"
    INDEX 01 00:51:24
  TRACK 41 AUDIO
    TITLE "8:cjc092_1641"
    INDEX 01 00:52:28
  TRACK 42 AUDIO
    TITLE "0:"
    INDEX 01 00:55:32
  TRACK 43 AUDIO
    TITLE "7:cjc092_1642"
    INDEX 01 00:55:69
  TRACK 44 AUDIO
    TITLE "8:cjc092_1643"
    INDEX 01 00:57:07
  TRACK 45 AUDIO
    TITLE "0:"
    INDEX 01 00:58:67
  TRACK 46 AUDIO
    TITLE "7:cjc092_1644"
    INDEX 01 00:59:24
  TRACK 47 AUDIO
    TITLE "8:cjc092_1645"
    INDEX 01 01:00:37
  TRACK 48 AUDIO
    TITLE "0:"
    INDEX 01 01:03:43
  TRACK 49 AUDIO
    TITLE "7:cjc092_1646"
    INDEX 01 01:03:69
  TRACK 50 AUDIO
    TITLE "8:cjc092_1647"
    INDEX 01 01:05:09
  TRACK 51 AUDIO
    TITLE "0:"
    INDEX 01 01:08:03
  TRACK 52 AUDIO
    TITLE "7:cjc092_1648"
    INDEX 01 01:08:38
  TRACK 53 AUDIO
    TITLE "8:cjc092_1649"
    INDEX 01 01:09:57
  TRACK 54 AUDIO
    TITLE "0:"
    INDEX 01 01:13:04
  TRACK 55 AUDIO
    TITLE "7:cjc092_1650"
    INDEX 01 01:13:30
  TRACK 56 AUDIO
    TITLE "8:cjc092_1651"
    INDEX 01 01:14:47
  TRACK 57 AUDIO
    TITLE "0:"
    INDEX 01 01:19:17
  TRACK 58 AUDIO
    TITLE "7:cjc092_1652"
    INDEX 01 01:19:54
  TRACK 59 AUDIO
    TITLE "8:cjc092_1653"
    INDEX 01 01:21:02
  TRACK 60 AUDIO
    TITLE "0:"
    INDEX 01 01:24:24
  TRACK 61 AUDIO
    TITLE "7:cjc092_1654"
    INDEX 01 01:24:57
  TRACK 62 AUDIO
    TITLE "8:cjc092_1655"
    INDEX 01 01:26:07
  TRACK 63 AUDIO
    TITLE "0:"
    INDEX 01 01:28:02
  TRACK 64 AUDIO
    TITLE "7:cjc092_1656"
    INDEX 01 01:28:37
  TRACK 65 AUDIO
    TITLE "8:cjc092_1657"
    INDEX 01 01:29:74
  TRACK 66 AUDIO
    TITLE "0:"
    INDEX 01 01:31:49
